<svg xmlns="http://www.w3.org/2000/svg" width="800" height="600" viewBox="0 0 800 600">
  <defs>
    <filter id="s" x="-20%" y="-20%" width="140%" height="140%">
      <feDropShadow dx="0" dy="10" stdDeviation="12" flood-color="currentColor" flood-opacity="0.18"/>
    </filter>
  </defs>
  <rect width="800" height="600" fill="transparent"/>
  <g filter="url(#s)" transform="translate(120 110)" color="currentColor">
    <path
      d="M60 80c-30 0-55 25-55 55v200c0 30 25 55 55 55h420c30 0 55-25 55-55V135c0-30-25-55-55-55H60z"
      fill="currentColor"
      opacity="0.12"
      stroke="currentColor"
      stroke-opacity="0.25"
      stroke-width="10"
    />
    <path
      d="M35 110c20 20 35 45 35 70v160c0 25-15 50-35 70"
      fill="none"
      stroke="currentColor"
      stroke-opacity="0.25"
      stroke-width="16"
      stroke-linecap="round"
    />
    <path
      d="M505 110c-20 20-35 45-35 70v160c0 25 15 50 35 70"
      fill="none"
      stroke="currentColor"
      stroke-opacity="0.25"
      stroke-width="16"
      stroke-linecap="round"
    />
    <g opacity="0.18" stroke="currentColor" stroke-width="6" fill="none">
      <path d="M110 165h340"/>
      <path d="M110 215h300"/>
      <path d="M110 265h320"/>
      <path d="M110 315h260"/>
    </g>
    <path d="M360 340l70 40" stroke="currentColor" stroke-width="10" stroke-linecap="round" opacity="0.2"/>
  </g>
</svg>
